<?xml version="1.0" encoding="iso-8859-1"?>
<!-- Generator: Adobe Illustrator 19.0.0, SVG Export Plug-In . SVG Version: 6.00 Build 0)  -->
<svg version="1.1" id="Layer_1" xmlns="http://www.w3.org/2000/svg" xmlns:xlink="http://www.w3.org/1999/xlink" x="0px" y="0px"
	 viewBox="0 0 512 512" style="enable-background:new 0 0 512 512;" xml:space="preserve">
<g>
	<g>
		<path d="M437.328,181.336C437.328,81.188,356.141,0,256,0S74.672,81.188,74.672,181.336c0,96.562,75.484,175.484,170.656,181.008
			v64.32h-64c-5.891,0-10.656,4.773-10.656,10.672c0,5.891,4.766,10.664,10.656,10.664h64v53.328
			c0,5.906,4.781,10.672,10.672,10.672s10.672-4.766,10.672-10.672V448h64c5.891,0,10.656-4.773,10.656-10.664
			c0-5.898-4.766-10.672-10.656-10.672h-64v-64.32C361.844,356.82,437.328,277.898,437.328,181.336z M256,341.335
			c-21.61,0-42.562-4.227-62.266-12.57c-19.062-8.054-36.172-19.593-50.875-34.296s-26.234-31.812-34.297-50.859
			C100.234,223.891,96,202.945,96,181.336s4.234-42.562,12.562-62.273c8.062-19.055,19.594-36.164,34.297-50.867
			s31.812-26.242,50.875-34.297C213.437,25.563,234.39,21.337,256,21.337c21.61,0,42.562,4.227,62.266,12.562
			c19.062,8.055,36.172,19.594,50.875,34.297s26.234,31.812,34.297,50.867c8.328,19.71,12.562,40.664,12.562,62.273
			s-4.234,42.555-12.562,62.273c-8.062,19.047-19.594,36.156-34.297,50.859s-31.812,26.242-50.875,34.297
			C298.563,337.109,277.61,341.335,256,341.335z"/>
	</g>
</g>
<g>
</g>
<g>
</g>
<g>
</g>
<g>
</g>
<g>
</g>
<g>
</g>
<g>
</g>
<g>
</g>
<g>
</g>
<g>
</g>
<g>
</g>
<g>
</g>
<g>
</g>
<g>
</g>
<g>
</g>
</svg>
