<svg xmlns="http://www.w3.org/2000/svg" xmlns:xlink="http://www.w3.org/1999/xlink" version="1.1" x="0px" y="0px" viewBox="0 0 260.3 346.625" style="enable-background:new 0 0 260.3 277.3;" xml:space="preserve"><style type="text/css">
	.st0{fill:none;}
	.st1{fill:#1A1A1A;}
</style><path d="M41.4,76.9l0.9,1.7c0,0.1,0.1,0.2,0.2,0.2l1.7,0.9c0.4,0.2,0.4,0.7,0,0.9l-1.7,0.9c-0.1,0-0.2,0.1-0.2,0.2l-0.9,1.7  c-0.2,0.4-0.7,0.4-0.9,0l-0.9-1.7c0-0.1-0.1-0.2-0.2-0.2l-1.7-0.9c-0.4-0.2-0.4-0.7,0-0.9l1.7-0.9c0.1,0,0.2-0.1,0.2-0.2l0.9-1.7  C40.7,76.5,41.3,76.5,41.4,76.9z"/><path d="M121.5,25.9l0.9,1.7c0,0.1,0.1,0.2,0.2,0.2l1.7,0.9c0.4,0.2,0.4,0.7,0,0.9l-1.7,0.9c-0.1,0-0.2,0.1-0.2,0.2l-0.9,1.7  c-0.2,0.4-0.7,0.4-0.9,0l-0.9-1.7c0-0.1-0.1-0.2-0.2-0.2l-1.7-0.9c-0.4-0.2-0.4-0.7,0-0.9l1.7-0.9c0.1,0,0.2-0.1,0.2-0.2l0.9-1.7  C120.8,25.6,121.4,25.6,121.5,25.9z"/><path d="M30.1,125.5l0.6,1.1c0,0.1,0.1,0.1,0.1,0.1l1.1,0.6c0.2,0.1,0.2,0.5,0,0.6l-1.1,0.6c-0.1,0-0.1,0.1-0.1,0.1l-0.6,1.1  c-0.1,0.2-0.5,0.2-0.6,0l-0.6-1.1c0-0.1-0.1-0.1-0.1-0.1l-1.1-0.6c-0.2-0.1-0.2-0.5,0-0.6l1.1-0.6c0.1,0,0.1-0.1,0.1-0.1l0.6-1.1  C29.7,125.3,30,125.3,30.1,125.5z"/><path d="M65,226l0.6,1.2c0,0.1,0.1,0.1,0.1,0.1l1.1,0.6c0.2,0.1,0.2,0.5,0,0.6l-1.1,0.6c-0.1,0-0.1,0.1-0.1,0.1l-0.6,1.2  c-0.1,0.3-0.5,0.3-0.6,0l-0.6-1.2c0-0.1-0.1-0.1-0.1-0.1l-1.1-0.6c-0.2-0.1-0.2-0.5,0-0.6l1.1-0.6c0.1,0,0.1-0.1,0.1-0.1l0.6-1.2  C64.6,225.7,64.9,225.7,65,226z"/><path d="M241.7,127.8l0.5,1c0,0.1,0.1,0.1,0.1,0.1l1,0.5c0.2,0.1,0.2,0.4,0,0.5l-1,0.5c-0.1,0-0.1,0.1-0.1,0.1l-0.5,1  c-0.1,0.2-0.4,0.2-0.5,0l-0.5-1c0-0.1-0.1-0.1-0.1-0.1l-1-0.5c-0.2-0.1-0.2-0.4,0-0.5l1-0.5c0.1,0,0.1-0.1,0.1-0.1l0.5-1  C241.2,127.6,241.5,127.6,241.7,127.8z"/><path d="M162.1,37.4l0.5,1c0,0.1,0.1,0.1,0.1,0.1l1,0.5c0.2,0.1,0.2,0.4,0,0.5l-1,0.5c-0.1,0-0.1,0.1-0.1,0.1l-0.5,1  c-0.1,0.2-0.4,0.2-0.5,0l-0.5-1c0-0.1-0.1-0.1-0.1-0.1l-1-0.5c-0.2-0.1-0.2-0.4,0-0.5l1-0.5c0.1,0,0.1-0.1,0.1-0.1l0.5-1  C161.6,37.2,161.9,37.2,162.1,37.4z"/><path d="M136.4,100.2l0.5,1c0,0.1,0.1,0.1,0.1,0.1l1,0.5c0.2,0.1,0.2,0.4,0,0.5l-1,0.5c-0.1,0-0.1,0.1-0.1,0.1l-0.5,1  c-0.1,0.2-0.4,0.2-0.5,0l-0.5-1c0-0.1-0.1-0.1-0.1-0.1l-1-0.5c-0.2-0.1-0.2-0.4,0-0.5l1-0.5c0.1,0,0.1-0.1,0.1-0.1l0.5-1  C136,100,136.3,100,136.4,100.2z"/><path d="M225,75.6l-0.4,1c0,0.1,0,0.1,0,0.2l0.2,1.1c0,0.2-0.2,0.4-0.4,0.3l-1-0.4c-0.1,0-0.1,0-0.2,0L222,78  c-0.2,0-0.4-0.2-0.3-0.4l0.4-1c0-0.1,0-0.1,0-0.2l-0.2-1.1c0-0.2,0.2-0.4,0.4-0.3l1,0.4c0.1,0,0.1,0,0.2,0l1.1-0.2  C224.9,75.2,225.1,75.4,225,75.6z"/><path d="M124.6,242.1l-0.9,2.2c0,0.1-0.1,0.2,0,0.4l0.4,2.3c0.1,0.5-0.4,0.9-0.9,0.7l-2.2-0.9c-0.1,0-0.2-0.1-0.4,0l-2.3,0.4  c-0.5,0.1-0.9-0.4-0.7-0.9l0.9-2.2c0-0.1,0.1-0.2,0-0.4l-0.4-2.3c-0.1-0.5,0.4-0.9,0.9-0.7l2.2,0.9c0.1,0,0.2,0.1,0.4,0l2.3-0.4  C124.4,241.1,124.8,241.6,124.6,242.1z"/><path d="M109,125.5l-0.9,2.2c0,0.1-0.1,0.2,0,0.4l0.4,2.3c0.1,0.5-0.4,0.9-0.9,0.7l-2.2-0.9c-0.1,0-0.2-0.1-0.4,0l-2.3,0.4  c-0.5,0.1-0.9-0.4-0.7-0.9l0.9-2.2c0-0.1,0.1-0.2,0-0.4l-0.4-2.3c-0.1-0.5,0.4-0.9,0.9-0.7l2.2,0.9c0.1,0,0.2,0.1,0.4,0l2.3-0.4  C108.8,124.5,109.2,125,109,125.5z"/><path d="M34,211l-0.7,1.8c0,0.1-0.1,0.2,0,0.3l0.3,1.9c0.1,0.4-0.3,0.7-0.7,0.6l-1.8-0.7c-0.1,0-0.2-0.1-0.3,0l-1.9,0.3  c-0.4,0.1-0.7-0.3-0.6-0.7l0.7-1.8c0-0.1,0.1-0.2,0-0.3l-0.3-1.9c-0.1-0.4,0.3-0.7,0.7-0.6l1.8,0.7c0.1,0,0.2,0.1,0.3,0l1.9-0.3  C33.8,210.2,34.2,210.6,34,211z"/><path d="M209.7,25.9l0.9,1.7c0,0.1,0.1,0.2,0.2,0.2l1.7,0.9c0.4,0.2,0.4,0.7,0,0.9l-1.7,0.9c-0.1,0-0.2,0.1-0.2,0.2l-0.9,1.7  c-0.2,0.4-0.7,0.4-0.9,0l-0.9-1.7c0-0.1-0.1-0.2-0.2-0.2l-1.7-0.9c-0.4-0.2-0.4-0.7,0-0.9l1.7-0.9c0.1,0,0.2-0.1,0.2-0.2l0.9-1.7  C209,25.6,209.5,25.6,209.7,25.9z"/><path d="M208.5,238.9l-0.7,1.8c0,0.1-0.1,0.2,0,0.3l0.3,1.9c0.1,0.4-0.3,0.7-0.7,0.6l-1.8-0.7c-0.1,0-0.2-0.1-0.3,0l-1.9,0.3  c-0.4,0.1-0.7-0.3-0.6-0.7l0.7-1.8c0-0.1,0.1-0.2,0-0.3l-0.3-1.9c-0.1-0.4,0.3-0.7,0.7-0.6l1.8,0.7c0.1,0,0.2,0.1,0.3,0l1.9-0.3  C208.4,238.2,208.7,238.6,208.5,238.9z"/><path d="M59.3,41.7l0.9,1.7c0,0.1,0.1,0.2,0.2,0.2l1.7,0.9c0.4,0.2,0.4,0.7,0,0.9l-1.7,0.9c-0.1,0-0.2,0.1-0.2,0.2l-0.9,1.7  c-0.2,0.4-0.7,0.4-0.9,0l-0.9-1.7c0-0.1-0.1-0.2-0.2-0.2l-1.7-0.9c-0.4-0.2-0.4-0.7,0-0.9l1.7-0.9c0.1,0,0.2-0.1,0.2-0.2l0.9-1.7  C58.5,41.3,59.1,41.3,59.3,41.7z"/><path class="st0" d="M149.1,153.8c-12.5,6.4-25.9,13-39.9,19.3c-8.8,4-17.9,7.9-27.3,11.5c7.5,8,17,14,27.7,17.6  c17,5.6,35.2,4.3,51.3-3.7c16-8,28-21.9,33.6-38.9c3.6-10.7,4.3-21.9,2.4-32.7c-4.2,2.6-8.5,5.2-13.1,7.9  C173.3,140.9,161.7,147.3,149.1,153.8z"/><path class="st0" d="M198.9,121.5c4-2.6,7.9-5.2,11.4-7.7c8.1-5.7,15-10.9,20.2-15.6c5.3-4.7,9-8.8,10.6-11.8c0.8-1.5,1-2.6,0.9-3.1  c0-0.1,0-0.3,0-0.3c0,0,0,0-0.1-0.2c0-0.1-0.1-0.2-0.1-0.2c0,0-0.1-0.2-0.4-0.5c-0.4-0.4-1.4-0.9-3.1-1.1c-3.4-0.5-8.9,0-15.8,1.4  c-6.9,1.4-15.2,3.8-24.6,6.9c-4.1,1.4-8.5,2.9-13,4.6c3.3,4,6.1,8.4,8.5,13.1C195.9,111.6,197.7,116.5,198.9,121.5z"/><path class="st0" d="M62.7,155.2c-3.7,2.4-7.4,4.8-11,7.4c-6.6,4.6-13.1,9.4-19.2,14.6c-3,2.6-6,5.4-8.6,8.3c-1.3,1.5-2.5,3-3.4,4.6  c-0.4,0.8-0.8,1.6-1,2.3c-0.1,0.4-0.1,0.7-0.1,1c0,0.1,0,0.3,0,0.3c0,0,0.1,0.2,0.1,0.4c0,0,0,0.1,0,0l0,0.1c0,0.1,0.1,0.1,0.1,0.1  c0.1,0.1,0.2,0.2,0.3,0.3c0.2,0.2,0.5,0.4,0.9,0.5c0.7,0.3,1.5,0.5,2.4,0.6c1.8,0.2,3.8,0.2,5.7,0.1c3.9-0.3,7.9-1,11.8-1.9  c7.8-1.8,15.6-4.1,23.2-6.6c4.2-1.4,8.4-2.9,12.5-4.4c-3.3-4-6.1-8.4-8.5-13.1C65.7,165.1,63.9,160.2,62.7,155.2z"/><path d="M241.9,82.5c0,0,0,0,0,0.1c0,0,0,0,0,0L241.9,82.5z"/><g><path d="M64.1,187.3c-7.6,2.5-15.3,4.9-23.2,6.6c-3.9,0.9-7.9,1.6-11.8,1.9c-1.9,0.1-3.9,0.2-5.7-0.1c-0.9-0.1-1.8-0.3-2.4-0.6   c-0.3-0.1-0.6-0.3-0.9-0.5c-0.1-0.1-0.2-0.2-0.3-0.3c0,0-0.1-0.1-0.1-0.1l0-0.1c0,0,0-0.1,0,0c-0.1-0.2-0.2-0.5-0.1-0.4   c0,0,0-0.2,0-0.3c0-0.3,0-0.6,0.1-1c0.2-0.7,0.5-1.5,1-2.3c0.9-1.6,2.1-3.1,3.4-4.6c2.6-3,5.5-5.7,8.6-8.3   c6.1-5.2,12.6-10,19.2-14.6c3.6-2.5,7.3-5,11-7.4c-0.3-1.2-0.6-2.4-0.8-3.6c-4.1,2.6-8.2,5.2-12.2,8c-6.7,4.6-13.3,9.3-19.6,14.7   c-3.1,2.7-6.2,5.5-9,8.7c-1.4,1.6-2.7,3.3-3.8,5.3c-0.5,1-1.1,2.1-1.4,3.3c-0.2,0.6-0.2,1.3-0.2,2.1c0,0.4,0.1,0.7,0.2,1.2   c0.1,0.5,0.2,0.6,0.3,0.9c0.2,0.4,0.1,0.2,0.2,0.4l0.2,0.3c0.1,0.2,0.2,0.3,0.3,0.5c0.2,0.3,0.5,0.6,0.8,0.8   c0.6,0.5,1.2,0.8,1.8,1.1c1.2,0.5,2.4,0.7,3.5,0.9c2.3,0.3,4.4,0.2,6.5,0.1c4.2-0.4,8.3-1.1,12.3-2c8-1.8,15.8-4.3,23.5-6.9   c4.6-1.6,9.2-3.3,13.7-5c-0.8-0.9-1.6-1.8-2.4-2.8C72.5,184.4,68.3,185.9,64.1,187.3z"/><path d="M246,83.1c0-0.4-0.1-0.7-0.2-1c-0.1-0.3-0.2-0.6-0.2-0.7c-0.1-0.2-0.1-0.4-0.1-0.4l-0.1-0.1c0,0-0.1-0.2-0.3-0.5   c-0.2-0.3-0.6-0.8-1.1-1.3c-1.1-1-2.9-1.7-5-2c-4.2-0.6-10,0-17.1,1.5c-10.5,2.2-23.8,6.5-39.2,12.4c0.8,0.9,1.6,1.8,2.4,2.8   c4.5-1.7,8.8-3.2,13-4.6c9.4-3.1,17.7-5.5,24.6-6.9c6.9-1.4,12.4-1.9,15.8-1.4c1.7,0.3,2.7,0.8,3.1,1.1c0.3,0.3,0.4,0.5,0.4,0.5   c0-0.1,0-0.1,0-0.1l0.1,0.1c0,0,0,0,0,0c0,0.1,0.1,0.1,0.1,0.2c0.1,0.2,0,0.2,0.1,0.2c0,0,0,0.1,0,0.3c0.1,0.5-0.2,1.6-0.9,3.1   c-1.6,3-5.3,7.2-10.6,11.8c-5.3,4.7-12.1,9.9-20.2,15.6c-3.6,2.5-7.4,5-11.4,7.7c0.3,1.2,0.6,2.4,0.8,3.6   c13.9-8.8,25.3-16.9,33.4-24c5.4-4.8,9.4-9.1,11.5-12.8C245.6,86.4,246.1,84.5,246,83.1z"/><path d="M194.6,159.5c-5.6,17-17.6,30.8-33.6,38.9c-16,8-34.2,9.4-51.3,3.7c-10.7-3.6-20.1-9.6-27.7-17.6c-1,0.4-2,0.8-3,1.2   c8,8.8,18.1,15.4,29.7,19.3c7.3,2.4,14.7,3.6,22.2,3.6c10.8,0,21.5-2.5,31.4-7.5c16.8-8.4,29.2-22.8,35.1-40.6   c3.8-11.6,4.6-23.7,2.3-35.3c-0.9,0.6-1.8,1.1-2.7,1.7C198.9,137.6,198.1,148.8,194.6,159.5z"/><path d="M65.4,153.5c-0.9,0.6-1.8,1.1-2.7,1.7c1.2,5,3,9.9,5.4,14.6c2.4,4.7,5.2,9.1,8.5,13.1c1-0.4,2-0.7,3-1.1   c-3.4-4-6.4-8.5-8.8-13.3C68.4,163.7,66.6,158.6,65.4,153.5z"/><path d="M190.8,108.2c2.4,4.8,4.2,9.9,5.4,15c0.9-0.6,1.8-1.1,2.7-1.7c-1.2-5-3-9.9-5.4-14.6c-2.4-4.7-5.2-9.1-8.5-13.1   c-1,0.4-2,0.7-3,1.1C185.5,99,188.4,103.4,190.8,108.2z"/><path d="M67.1,117.2c5.6-17,17.6-30.8,33.6-38.9c9.5-4.8,19.7-7.2,30.1-7.2c7.1,0,14.3,1.1,21.2,3.4c10.7,3.6,20.1,9.6,27.7,17.6   c1-0.4,2-0.8,3-1.2c-8-8.8-18.1-15.4-29.7-19.3c-17.8-5.9-36.8-4.5-53.6,3.9c-16.8,8.4-29.2,22.8-35.1,40.6   c-3.8,11.6-4.6,23.7-2.3,35.3c0.9-0.6,1.8-1.1,2.7-1.7C62.7,139.1,63.5,127.9,67.1,117.2z"/><path d="M147.7,151.1c-12.4,6.5-25.8,12.9-39.8,19.1c-9.2,4-18.7,8-28.4,11.7c0.8,0.9,1.6,1.9,2.4,2.7c9.3-3.7,18.4-7.6,27.3-11.5   c14-6.3,27.4-12.8,39.9-19.3c12.5-6.4,24.2-12.9,34.8-19.1c4.6-2.7,8.9-5.3,13.1-7.9c-0.2-1.2-0.5-2.4-0.7-3.6   c-4.4,2.8-9.1,5.7-14,8.6C171.8,138.2,160.2,144.6,147.7,151.1z"/></g><path d="M19.8,194.3c0,0,0-0.1,0-0.1C19.7,194.2,19.7,194.2,19.8,194.3z"/><path d="M196.3,123.2c0.3,1.2,0.5,2.4,0.7,3.6c0.9-0.6,1.8-1.1,2.7-1.7c-0.2-1.2-0.5-2.4-0.8-3.6  C198.1,122.1,197.2,122.7,196.3,123.2z"/><path d="M79.6,181.8c-1,0.4-2,0.7-3,1.1c0.8,1,1.6,1.9,2.4,2.8c1-0.4,2-0.8,3-1.2C81.2,183.7,80.4,182.7,79.6,181.8z"/><path d="M65.4,153.5c-0.3-1.2-0.5-2.4-0.7-3.6c-0.9,0.6-1.8,1.1-2.7,1.7c0.2,1.2,0.5,2.4,0.8,3.6C63.6,154.6,64.5,154.1,65.4,153.5z  "/><path d="M182.1,94.9c1-0.4,2-0.7,3-1.1c-0.8-1-1.6-1.9-2.4-2.8c-1,0.4-2,0.8-3,1.2C180.5,93.1,181.3,94,182.1,94.9z"/><text x="0" y="292.3" fill="#000000" font-size="5px" font-weight="bold" font-family="'Helvetica Neue', Helvetica, Arial-Unicode, Arial, Sans-serif">Created by Felix Brönnimann</text><text x="0" y="297.3" fill="#000000" font-size="5px" font-weight="bold" font-family="'Helvetica Neue', Helvetica, Arial-Unicode, Arial, Sans-serif">from the Noun Project</text></svg>