<svg width="67" height="89" viewBox="0 0 67 89" fill="none" xmlns="http://www.w3.org/2000/svg">
<path d="M10.6562 19.745L10.8878 20.1815C10.8878 20.2071 10.9136 20.2328 10.9393 20.2328L11.3769 20.4639C11.4798 20.5153 11.4798 20.6436 11.3769 20.695L10.9393 20.9261C10.9136 20.9261 10.8878 20.9517 10.8878 20.9774L10.6562 21.4139C10.6047 21.5166 10.476 21.5166 10.4245 21.4139L10.1929 20.9774C10.1929 20.9517 10.1671 20.9261 10.1414 20.9261L9.70381 20.695C9.60085 20.6436 9.60085 20.5153 9.70381 20.4639L10.1414 20.2328C10.1671 20.2328 10.1929 20.2071 10.1929 20.1815L10.4245 19.745C10.476 19.6423 10.6304 19.6423 10.6562 19.745Z" fill="#B8C1EC"/>
<path d="M31.2735 6.65015L31.5052 7.08664C31.5052 7.11232 31.5309 7.138 31.5567 7.138L31.9942 7.36908C32.0972 7.42043 32.0972 7.54881 31.9942 7.60017L31.5567 7.83125C31.5309 7.83125 31.5052 7.85693 31.5052 7.8826L31.2735 8.3191C31.2221 8.4218 31.0934 8.4218 31.0419 8.3191L30.8102 7.8826C30.8102 7.85693 30.7845 7.83125 30.7587 7.83125L30.3212 7.60017C30.2182 7.54881 30.2182 7.42043 30.3212 7.36908L30.7587 7.138C30.7845 7.138 30.8102 7.11232 30.8102 7.08664L31.0419 6.65015C31.0934 6.57312 31.2478 6.57312 31.2735 6.65015Z" fill="#B8C1EC"/>
<path d="M7.74761 32.2236L7.90204 32.506C7.90204 32.5317 7.92778 32.5317 7.92778 32.5317L8.21092 32.6857C8.2624 32.7114 8.2624 32.8141 8.21092 32.8398L7.92778 32.9939C7.90204 32.9939 7.90204 33.0195 7.90204 33.0195L7.74761 33.302C7.72187 33.3533 7.61891 33.3533 7.59317 33.302L7.43873 33.0195C7.43873 32.9939 7.41299 32.9939 7.41299 32.9939L7.12986 32.8398C7.07838 32.8141 7.07838 32.7114 7.12986 32.6857L7.41299 32.5317C7.43873 32.5317 7.43873 32.506 7.43873 32.506L7.59317 32.2236C7.64465 32.1722 7.72187 32.1722 7.74761 32.2236Z" fill="#B8C1EC"/>
<path d="M16.7307 58.0281L16.8851 58.3362C16.8851 58.3619 16.9109 58.3619 16.9109 58.3619L17.194 58.516C17.2455 58.5417 17.2455 58.6444 17.194 58.67L16.9109 58.8241C16.8851 58.8241 16.8851 58.8498 16.8851 58.8498L16.7307 59.1579C16.705 59.2349 16.602 59.2349 16.5763 59.1579L16.4218 58.8498C16.4218 58.8241 16.3961 58.8241 16.3961 58.8241L16.113 58.67C16.0615 58.6444 16.0615 58.5417 16.113 58.516L16.3961 58.3619C16.4218 58.3619 16.4218 58.3362 16.4218 58.3362L16.5763 58.0281C16.6277 57.9511 16.705 57.9511 16.7307 58.0281Z" fill="#B8C1EC"/>
<path d="M62.2124 32.8141L62.3411 33.0709C62.3411 33.0966 62.3669 33.0966 62.3669 33.0966L62.6243 33.225C62.6757 33.2506 62.6757 33.3277 62.6243 33.3533L62.3669 33.4817C62.3411 33.4817 62.3411 33.5074 62.3411 33.5074L62.2124 33.7642C62.1867 33.8155 62.1095 33.8155 62.0837 33.7642L61.955 33.5074C61.955 33.4817 61.9293 33.4817 61.9293 33.4817L61.6719 33.3533C61.6204 33.3277 61.6204 33.2506 61.6719 33.225L61.9293 33.0966C61.955 33.0966 61.955 33.0709 61.955 33.0709L62.0837 32.8141C62.0837 32.7628 62.161 32.7628 62.2124 32.8141Z" fill="#B8C1EC"/>
<path d="M41.7238 9.60288L41.8525 9.85964C41.8525 9.88531 41.8782 9.88531 41.8782 9.88531L42.1356 10.0137C42.1871 10.0394 42.1871 10.1164 42.1356 10.1421L41.8782 10.2705C41.8525 10.2705 41.8525 10.2961 41.8525 10.2961L41.7238 10.5529C41.6981 10.6042 41.6208 10.6042 41.5951 10.5529L41.4664 10.2961C41.4664 10.2705 41.4407 10.2705 41.4407 10.2705L41.1833 10.1421C41.1318 10.1164 41.1318 10.0394 41.1833 10.0137L41.4407 9.88531C41.4664 9.88531 41.4664 9.85964 41.4664 9.85964L41.5951 9.60288C41.5951 9.55152 41.6723 9.55152 41.7238 9.60288Z" fill="#B8C1EC"/>
<path d="M35.1087 25.7275L35.2374 25.9843C35.2374 26.0099 35.2631 26.0099 35.2631 26.0099L35.5205 26.1383C35.572 26.164 35.572 26.241 35.5205 26.2667L35.2631 26.3951C35.2374 26.3951 35.2374 26.4208 35.2374 26.4208L35.1087 26.6775C35.083 26.7289 35.0057 26.7289 34.98 26.6775L34.8513 26.4208C34.8513 26.3951 34.8256 26.3951 34.8256 26.3951L34.5682 26.2667C34.5167 26.241 34.5167 26.164 34.5682 26.1383L34.8256 26.0099C34.8513 26.0099 34.8513 25.9843 34.8513 25.9843L34.98 25.7275C35.0057 25.6762 35.083 25.6762 35.1087 25.7275Z" fill="#B8C1EC"/>
<path d="M57.914 19.4112L57.811 19.668C57.811 19.6936 57.811 19.6936 57.811 19.7193L57.8625 20.0017C57.8625 20.0531 57.811 20.1045 57.7595 20.0788L57.5021 19.9761C57.4764 19.9761 57.4764 19.9761 57.4506 19.9761L57.1418 20.0274C57.0903 20.0274 57.0388 19.9761 57.0646 19.9247L57.1675 19.668C57.1675 19.6423 57.1675 19.6423 57.1675 19.6166L57.116 19.3342C57.116 19.2828 57.1675 19.2315 57.219 19.2571L57.4764 19.3598C57.5021 19.3598 57.5021 19.3598 57.5279 19.3598L57.811 19.3085C57.8882 19.3085 57.9397 19.3598 57.914 19.4112Z" fill="#B8C1EC"/>
<path d="M32.0715 62.162L31.8398 62.7268C31.8398 62.7525 31.8141 62.7782 31.8398 62.8296L31.9428 63.4201C31.9685 63.5485 31.8398 63.6512 31.7111 63.5998L31.1448 63.3688C31.1191 63.3688 31.0934 63.3431 31.0419 63.3688L30.4499 63.4715C30.3212 63.4971 30.2182 63.3688 30.2697 63.2404L30.5014 62.6755C30.5014 62.6498 30.5271 62.6241 30.5014 62.5728L30.3984 61.9822C30.3727 61.8539 30.5014 61.7512 30.6301 61.8025L31.1963 62.0336C31.2221 62.0336 31.2478 62.0593 31.2993 62.0336L31.8913 61.9309C32.02 61.9052 32.1229 62.0336 32.0715 62.162Z" fill="#B8C1EC"/>
<path d="M28.0561 32.2236L27.8244 32.7885C27.8244 32.8141 27.7987 32.8398 27.8244 32.8912L27.9274 33.4817C27.9531 33.6101 27.8244 33.7128 27.6957 33.6615L27.1295 33.4304C27.1037 33.4304 27.078 33.4047 27.0265 33.4304L26.4345 33.5331C26.3058 33.5588 26.2028 33.4304 26.2543 33.302L26.486 32.7371C26.486 32.7114 26.5117 32.6858 26.486 32.6344L26.383 32.0439C26.3573 31.9155 26.486 31.8128 26.6147 31.8641L27.1809 32.0952C27.2067 32.0952 27.2324 32.1209 27.2839 32.0952L27.8759 31.9925C28.0046 31.9668 28.1076 32.0952 28.0561 32.2236Z" fill="#B8C1EC"/>
<path d="M8.75144 54.1767L8.57126 54.6389C8.57126 54.6646 8.54552 54.6902 8.57126 54.7159L8.64848 55.2038C8.67422 55.3065 8.57126 55.3835 8.4683 55.3578L8.00499 55.1781C7.97925 55.1781 7.95351 55.1524 7.92777 55.1781L7.43872 55.2551C7.33576 55.2808 7.25855 55.1781 7.28429 55.0754L7.46446 54.6132C7.46446 54.5875 7.4902 54.5619 7.46446 54.5362L7.38724 54.0483C7.3615 53.9456 7.46446 53.8686 7.56742 53.8943L8.03073 54.074C8.05647 54.074 8.08221 54.0997 8.10795 54.074L8.597 53.997C8.69996 53.9713 8.80292 54.074 8.75144 54.1767Z" fill="#B8C1EC"/>
<path d="M53.9758 6.65015L54.2074 7.08664C54.2074 7.11232 54.2332 7.138 54.2589 7.138L54.6965 7.36908C54.7994 7.42043 54.7994 7.54881 54.6965 7.60017L54.2589 7.83125C54.2332 7.83125 54.2074 7.85693 54.2074 7.8826L53.9758 8.3191C53.9243 8.4218 53.7956 8.4218 53.7441 8.3191L53.5125 7.8826C53.5125 7.85693 53.4867 7.83125 53.461 7.83125L53.0234 7.60017C52.9205 7.54881 52.9205 7.42043 53.0234 7.36908L53.461 7.138C53.4867 7.138 53.5125 7.11232 53.5125 7.08664L53.7441 6.65015C53.7956 6.57312 53.9243 6.57312 53.9758 6.65015Z" fill="#B8C1EC"/>
<path d="M53.6669 61.3404L53.4867 61.8025C53.4867 61.8282 53.461 61.8539 53.4867 61.8796L53.5639 62.3674C53.5897 62.4701 53.4867 62.5471 53.3838 62.5214L52.9205 62.3417C52.8947 62.3417 52.869 62.316 52.8432 62.3417L52.3542 62.4187C52.2512 62.4444 52.174 62.3417 52.1998 62.239L52.3799 61.7768C52.3799 61.7512 52.4057 61.7255 52.3799 61.6998L52.3027 61.212C52.277 61.1093 52.3799 61.0322 52.4829 61.0579L52.9462 61.2377C52.9719 61.2377 52.9977 61.2633 53.0234 61.2377L53.5125 61.1606C53.6412 61.1606 53.7184 61.2633 53.6669 61.3404Z" fill="#B8C1EC"/>
<path d="M15.2636 10.707L15.4952 11.1435C15.4952 11.1691 15.521 11.1948 15.5467 11.1948L15.9843 11.4259C16.0872 11.4773 16.0872 11.6056 15.9843 11.657L15.5467 11.8881C15.521 11.8881 15.4952 11.9138 15.4952 11.9394L15.2636 12.3759C15.2121 12.4786 15.0834 12.4786 15.0319 12.3759L14.8002 11.9394C14.8002 11.9138 14.7745 11.8881 14.7488 11.8881L14.3112 11.657C14.2082 11.6056 14.2082 11.4773 14.3112 11.4259L14.7488 11.1948C14.7745 11.1948 14.8002 11.1691 14.8002 11.1435L15.0319 10.707C15.0576 10.6043 15.2121 10.6043 15.2636 10.707Z" fill="#B8C1EC"/>
<path d="M16.499 48.0915C14.5428 48.7334 12.5609 49.3496 10.5275 49.7861C9.52363 50.0172 8.49405 50.1969 7.49021 50.2739C7.00116 50.2996 6.48637 50.3253 6.02306 50.2483C5.7914 50.2226 5.55974 50.1712 5.40531 50.0942C5.32809 50.0685 5.25087 50.0172 5.17365 49.9658C5.14791 49.9401 5.12217 49.9145 5.09643 49.8888L5.07069 49.8631V49.8374C5.07069 49.8374 5.07069 49.8118 5.07069 49.8374C5.04495 49.7861 5.01921 49.7091 5.04495 49.7347C5.04495 49.7347 5.04495 49.6834 5.04495 49.6577C5.04495 49.5807 5.04495 49.5036 5.07069 49.4009C5.12217 49.2212 5.19939 49.0158 5.32809 48.8104C5.55974 48.3996 5.86862 48.0144 6.20323 47.6293C6.87246 46.859 7.61891 46.1657 8.41683 45.4982C9.98694 44.163 11.66 42.9306 13.3588 41.7495C14.2854 41.1076 15.2378 40.4656 16.1902 39.8494C16.113 39.5413 16.0357 39.2332 15.9843 38.9251C14.9289 39.5927 13.8736 40.2602 12.844 40.9792C11.1195 42.1603 9.42067 43.3671 7.79908 44.7536C7.00116 45.4468 6.20323 46.1657 5.48252 46.9874C5.12217 47.3982 4.78756 47.8347 4.50442 48.3482C4.37573 48.605 4.22129 48.8874 4.14407 49.1955C4.09259 49.3496 4.09259 49.5293 4.09259 49.7347C4.09259 49.8374 4.11833 49.9145 4.14407 50.0428C4.16981 50.1712 4.19555 50.1969 4.22129 50.2739C4.27277 50.3766 4.24703 50.3253 4.27277 50.3766L4.32425 50.4537C4.34999 50.505 4.37573 50.5307 4.40146 50.582C4.45294 50.6591 4.53016 50.7361 4.60738 50.7875C4.76182 50.9158 4.91626 50.9929 5.07069 51.0699C5.37957 51.1983 5.68844 51.2496 5.97158 51.301C6.56359 51.378 7.10412 51.3523 7.64465 51.3267C8.72571 51.2239 9.78103 51.0442 10.8106 50.8131C12.8698 50.351 14.8775 49.7091 16.8594 49.0415C18.0434 48.6307 19.2274 48.1942 20.3857 47.7577C20.1798 47.5266 19.9739 47.2955 19.768 47.0387C18.6612 47.3469 17.5801 47.732 16.499 48.0915Z" fill="#B8C1EC"/>
<path d="M63.3192 21.3369C63.3192 21.2342 63.2935 21.1572 63.2678 21.0801C63.242 21.0031 63.2163 20.9261 63.2163 20.9004C63.1905 20.8491 63.1905 20.7977 63.1905 20.7977L63.1648 20.772C63.1648 20.772 63.1391 20.7207 63.0876 20.6437C63.0361 20.5666 62.9332 20.4382 62.8045 20.3099C62.5213 20.0531 62.058 19.8734 61.5175 19.7963C60.4364 19.6423 58.9435 19.7963 57.116 20.1815C54.4134 20.7464 50.99 21.8504 47.0261 23.3653C47.232 23.5964 47.438 23.8275 47.6439 24.0843C48.8022 23.6478 49.909 23.2626 50.99 22.9032C53.4095 22.1072 55.5459 21.491 57.3219 21.1315C59.098 20.772 60.5136 20.6437 61.3888 20.772C61.8264 20.8491 62.0838 20.9774 62.1867 21.0545C62.2639 21.1315 62.2897 21.1829 62.2897 21.1829C62.2897 21.1572 62.2897 21.1572 62.2897 21.1572L62.3154 21.1829C62.3154 21.2085 62.3411 21.2085 62.3411 21.2342C62.3669 21.2856 62.3411 21.2856 62.3669 21.2856C62.3669 21.2856 62.3669 21.3112 62.3669 21.3626C62.3926 21.491 62.3154 21.7734 62.1352 22.1585C61.7234 22.9288 60.771 24.0072 59.4068 25.1883C58.0426 26.3951 56.2924 27.7303 54.2075 29.1938C53.2808 29.8357 52.3027 30.4776 51.2731 31.1709C51.3504 31.479 51.4276 31.7871 51.4791 32.0952C55.0569 29.8357 57.9912 27.756 60.0761 25.9329C61.466 24.7005 62.4956 23.5964 63.0361 22.6464C63.2163 22.1842 63.345 21.6964 63.3192 21.3369Z" fill="#B8C1EC"/>
<path d="M50.0891 40.9535C48.6477 45.3184 45.559 48.8618 41.4406 50.9415C37.3223 52.9956 32.6377 53.3551 28.2363 51.8916C25.4821 50.9672 23.0626 49.4266 21.1064 47.3725C20.849 47.4752 20.5916 47.578 20.3342 47.6807C22.3934 49.9402 24.9931 51.6348 27.9789 52.6362C29.8579 53.2524 31.7626 53.5605 33.693 53.5605C36.4729 53.5605 39.227 52.9186 41.7753 51.6348C46.0995 49.478 49.2912 45.7806 50.8098 41.2103C51.7879 38.2318 51.9938 35.125 51.4018 32.1466C51.1702 32.3006 50.9385 32.429 50.7069 32.5831C51.1959 35.3304 50.99 38.2062 50.0891 40.9535Z" fill="#B8C1EC"/>
<path d="M16.8336 39.4129C16.602 39.567 16.3703 39.6954 16.1387 39.8494C16.4475 41.1332 16.9109 42.3914 17.5286 43.5981C18.1464 44.8049 18.8671 45.9347 19.7165 46.9617C19.9739 46.859 20.2313 46.782 20.4886 46.6793C19.6135 45.6522 18.8413 44.4968 18.2236 43.2644C17.6058 42.0319 17.1425 40.7224 16.8336 39.4129Z" fill="#B8C1EC"/>
<path d="M49.111 27.7816C49.7288 29.0141 50.1921 30.3236 50.501 31.633C50.7326 31.479 50.9643 31.3506 51.1959 31.1965C50.887 29.9127 50.4237 28.6546 49.806 27.4478C49.1882 26.2411 48.4675 25.1113 47.6181 24.0843C47.3607 24.187 47.1033 24.264 46.8459 24.3667C47.7468 25.4194 48.4933 26.5492 49.111 27.7816Z" fill="#B8C1EC"/>
<path d="M17.2712 30.0925C18.7127 25.7275 21.8014 22.1842 25.9197 20.1045C28.365 18.872 30.9904 18.2558 33.6673 18.2558C35.4948 18.2558 37.3481 18.5382 39.1241 19.1288C41.8782 20.0531 44.2978 21.5937 46.254 23.6478C46.5114 23.5451 46.7688 23.4424 47.0261 23.3396C44.967 21.0801 42.3673 19.3855 39.3815 18.3841C34.7999 16.8693 29.9094 17.2287 25.5851 19.3855C21.2609 21.5423 18.0692 25.2397 16.5505 29.81C15.5724 32.7885 15.3665 35.8953 15.9585 38.8737C16.1902 38.7197 16.4218 38.5913 16.6535 38.4372C16.1387 35.7156 16.3446 32.8398 17.2712 30.0925Z" fill="#B8C1EC"/>
<path d="M38.0173 38.7967C34.8256 40.4657 31.3765 42.1089 27.7729 43.7009C25.4049 44.7279 22.9597 45.7549 20.4629 46.705C20.6688 46.9361 20.8748 47.1928 21.0807 47.3982C23.4744 46.4482 25.8167 45.4468 28.1076 44.4455C31.7111 42.8279 35.1602 41.1589 38.3776 39.49C41.5951 37.8467 44.6066 36.1777 47.335 34.5858C48.519 33.8926 49.6258 33.225 50.7069 32.5574C50.6554 32.2493 50.5782 31.9412 50.5267 31.6331C49.3942 32.352 48.1844 33.0966 46.9232 33.8412C44.2205 35.4845 41.2347 37.1278 38.0173 38.7967Z" fill="#B8C1EC"/>
<path d="M5.09585 49.8882V49.8631C5.07088 49.8631 5.07088 49.8631 5.09585 49.8882Z" fill="#B8C1EC"/>
<path d="M50.5267 31.633C50.6039 31.9411 50.6554 32.2493 50.7069 32.5574C50.9385 32.4033 51.1702 32.2749 51.4018 32.1209C51.3504 31.8128 51.2731 31.5046 51.1959 31.1965C50.99 31.3506 50.7584 31.5046 50.5267 31.633Z" fill="#B8C1EC"/>
<path d="M20.4887 46.6793C20.2313 46.782 19.9739 46.859 19.7165 46.9617C19.9224 47.2185 20.1283 47.4495 20.3342 47.6806C20.5916 47.5779 20.849 47.4752 21.1064 47.3725C20.9005 47.1671 20.6946 46.9103 20.4887 46.6793Z" fill="#B8C1EC"/>
<path d="M16.8336 39.4129C16.7564 39.1048 16.7049 38.7967 16.6535 38.4886C16.4218 38.6426 16.1902 38.771 15.9585 38.9251C16.01 39.2332 16.0872 39.5413 16.1644 39.8494C16.3703 39.6953 16.602 39.567 16.8336 39.4129Z" fill="#B8C1EC"/>
<path d="M46.8717 24.3667C47.1291 24.264 47.3865 24.1869 47.6439 24.0842C47.438 23.8275 47.232 23.5964 47.0261 23.3653C46.7687 23.468 46.5113 23.5707 46.2539 23.6734C46.4599 23.9045 46.6658 24.1356 46.8717 24.3667Z" fill="#B8C1EC"/>
</svg>
